<?xml version="1.0" encoding="UTF-8" standalone="no" ?>
<!DOCTYPE svg PUBLIC "-//W3C//DTD SVG 1.1//EN" "http://www.w3.org/Graphics/SVG/1.1/DTD/svg11.dtd">
<svg xmlns="http://www.w3.org/2000/svg" xmlns:xlink="http://www.w3.org/1999/xlink" version="1.1" width="1080" height="1080" viewBox="0 0 1080 1080" xml:space="preserve">
<desc>Created with Fabric.js 5.2.4</desc>
<defs>
</defs>
<g transform="matrix(1 0 0 1 540 540)" id="f25f1848-c3e2-439e-a7d8-7d2a1de7f3cc"  >
<rect style="stroke: none; stroke-width: 1; stroke-dasharray: none; stroke-linecap: butt; stroke-dashoffset: 0; stroke-linejoin: miter; stroke-miterlimit: 4; fill: rgb(60,62,115); fill-rule: nonzero; opacity: 1;" vector-effect="non-scaling-stroke"  x="-540" y="-540" rx="0" ry="0" width="1080" height="1080" />
</g>
<g transform="matrix(1 0 0 1 540 540)" id="fe239e70-bcdb-47df-9bd2-9626e8507e3b"  >
</g>
<g transform="matrix(1 0 0 1 540 540)" id="42d838fb-1093-4bc9-a073-5d086b289d74"  >
<path style="stroke: rgb(0,0,0); stroke-width: 0; stroke-dasharray: none; stroke-linecap: butt; stroke-dashoffset: 0; stroke-linejoin: miter; stroke-miterlimit: 4; fill: rgb(75,63,107); fill-rule: nonzero; opacity: 1;" vector-effect="non-scaling-stroke"  transform=" translate(-720, -137.76)" d="M 830 -63.482 C 830 19.351 854.36 78.678 944.732 117 C 1035.103 155.321 1122.418 120.352 1210.009 140.4 C 1297.599 160.448 1297.599 289.595 1380.086 369.071 C 1462.5720000000001 448.547 1636.491 467.85200000000003 1777.906 387.221 C 1919.321 306.589 1983.426 118.32499999999999 1941.173 7.319000000000017 C 1898.919 -103.687 1817.943 -205 1427.236 -205 C 1036.5290000000002 -205 830 -146.314 830 -63.482 z M -263.351 570.909 C -233.666 648.24 -189.662 694.8969999999999 -91.561 698.286 C 6.540999999999997 701.6759999999999 75.524 637.7389999999999 164.482 625.0659999999999 C 253.44 612.3919999999999 299.722 732.9609999999999 405.212 777.598 C 510.7 822.236 679.987 777.9309999999999 783.112 651.976 C 886.24 526.021 878.62 327.29 799.392 238.798 C 720.162 150.307 608.257 84.743 243.5 224.76 C -121.257 364.777 -293.03700000000003 493.578 -263.352 570.909 z M -514 -377.482 C -514 -294.649 -489.64 -235.32200000000003 -399.26800000000003 -197.00000000000003 C -308.89700000000005 -158.67900000000003 -221.58200000000002 -193.64800000000002 -133.99100000000004 -173.60000000000002 C -46.40100000000004 -153.55200000000002 -46.40100000000004 -24.40500000000003 36.085999999999956 55.07099999999997 C 118.57199999999996 134.54699999999997 292.49099999999993 153.85199999999998 433.90599999999995 73.22099999999998 C 575.3209999999999 -7.41100000000003 639.4259999999999 -195.67500000000004 597.173 -306.68100000000004 C 554.919 -417.687 473.943 -519 83.236 -519 C -307.471 -519 -514 -460.314 -514 -377.482 z" stroke-linecap="round" />
</g>
</svg>